<svg width="1071" height="334" viewBox="0 0 1071 334" fill="none" xmlns="http://www.w3.org/2000/svg">
<rect width="1070.51" height="334" fill="url(#paint0_radial_969_2952)"/>
<path d="M269.233 251.479H210.931V191.963H169.634V251.479H111.333V168.191H115.475V83.5H173.775V143.015H215.072V83.5H273.374V168.191H269.233V251.479ZM608.596 251.479H566.813L495.016 168.191H493.939V251.479H438.067V168.191H442.208V83.5H483.989L556.866 168.036V83.5H612.737V168.191H608.596V251.479ZM956.535 251.479H898.233V191.963H856.938V251.479H798.636V168.191H802.777V83.5H861.079V143.015H902.374V83.5H960.675V168.191H956.535V251.479ZM333.73 172.771C333.73 190.261 340.37 199.007 353.65 199.007C366.929 199.006 373.568 190.26 373.568 172.771V168.191H377.709V83.7441H436.011V168.191H431.871V176.416C431.87 190.991 428.711 203.945 422.395 215.281C416.241 226.617 407.253 235.444 395.431 241.76C383.771 248.076 369.844 251.234 353.65 251.234C337.456 251.234 323.447 248.075 311.625 241.76C299.965 235.444 290.977 226.618 284.661 215.281C278.507 203.945 275.43 190.991 275.43 176.416V168.191H279.571V83.7441H337.871V168.191H333.73V172.771ZM671.492 168.191C671.807 177.906 674.804 185.759 680.484 191.749C686.498 198.091 694.441 201.262 704.31 201.262C712.328 201.262 718.959 199.327 724.202 195.46C729.445 191.438 733.07 186.024 735.075 179.218H792.439C789.817 194.068 784.266 206.984 775.785 217.967C767.303 228.795 756.816 237.071 744.326 242.795C731.835 248.363 718.343 251.148 703.848 251.148C688.273 251.148 673.623 247.822 659.899 241.171C646.329 234.519 635.379 224.774 627.052 211.935C619.151 199.522 615.07 184.941 614.807 168.191H618.936C618.987 150.851 623.072 135.802 631.193 123.044C639.52 110.205 650.47 100.459 664.04 93.8076C677.764 87.1562 692.414 83.8311 707.989 83.8311C722.33 83.8311 735.668 86.6927 748.004 92.416C760.495 97.9847 770.982 106.26 779.463 117.242C787.945 128.07 793.496 140.91 796.118 155.76H738.751C736.747 148.954 733.123 143.618 727.88 139.751C722.637 135.729 716.161 133.717 708.451 133.717C698.582 133.717 690.639 136.888 684.625 143.23C678.675 149.506 675.669 157.827 675.606 168.191H671.492Z" fill="#EFEAFD"/>
<defs>
<radialGradient id="paint0_radial_969_2952" cx="0" cy="0" r="1" gradientTransform="matrix(206.542 199.218 -806.875 74.385 396.486 134.782)" gradientUnits="userSpaceOnUse">
<stop offset="0.205263" stop-color="#5B19BE"/>
<stop offset="1" stop-color="#8F72E6"/>
</radialGradient>
</defs>
</svg>
